<svg width="18" height="18" viewBox="0 0 18 18" fill="none" xmlns="http://www.w3.org/2000/svg">
<path d="M13.9905 13.1963L16.1876 15.3923C16.2901 15.4984 16.3468 15.6405 16.3455 15.788C16.3442 15.9355 16.285 16.0766 16.1807 16.1809C16.0764 16.2852 15.9354 16.3443 15.7879 16.3456C15.6404 16.3469 15.4983 16.2902 15.3922 16.1877L13.1951 13.9906C11.7593 15.2207 9.90291 15.8469 8.01539 15.7378C6.12786 15.6287 4.35597 14.7928 3.0715 13.4054C1.78703 12.018 1.08985 10.1871 1.12623 8.29677C1.16262 6.40645 1.92975 4.60369 3.26666 3.26678C4.60357 1.92988 6.40632 1.16274 8.29665 1.12636C10.187 1.08997 12.0179 1.78716 13.4053 3.07162C14.7926 4.35609 15.6286 6.12799 15.7377 8.01551C15.8468 9.90303 15.2206 11.7594 13.9905 13.1952V13.1963ZM8.43747 14.6251C10.0785 14.6251 11.6523 13.9732 12.8127 12.8128C13.9731 11.6524 14.625 10.0786 14.625 8.43759C14.625 6.79656 13.9731 5.22275 12.8127 4.06237C11.6523 2.90199 10.0785 2.25009 8.43747 2.25009C6.79644 2.25009 5.22263 2.90199 4.06225 4.06237C2.90186 5.22275 2.24997 6.79656 2.24997 8.43759C2.24997 10.0786 2.90186 11.6524 4.06225 12.8128C5.22263 13.9732 6.79644 14.6251 8.43747 14.6251V14.6251Z" fill="black"/>
</svg>
