<svg width="73" height="23" viewBox="0 0 73 23" fill="none" xmlns="http://www.w3.org/2000/svg">
<path d="M16.1569 3.72852C15.1219 5.68236 14.1342 10.699 18.4635 15.1348C20.0308 13.4273 21.7637 8.75571 16.1569 3.72852Z" fill="black"/>
<path d="M19.638 19.6972C18.9478 17.4279 20.1518 11.8433 30.1827 5.65869C29.4414 10.5048 26.2332 19.6972 19.638 19.6972Z" fill="black"/>
<path d="M17.3018 20.2984C6.24926 21.5367 -0.22152 9.2603 0.150017 2.56327C1.21066 2.7411 6.89607 4.94176 12.5589 10.5371C17.9431 16.9762 19.549 20.0467 17.3018 20.2984Z" fill="black"/>
<path d="M41.6802 13.2407C41.6802 14.0493 41.3812 14.6642 40.7831 15.0853C40.1935 15.4981 39.3891 15.7044 38.3699 15.7044H37.2833V19.4316H36.0578V11.0675H38.7742C39.6249 11.0675 40.3198 11.2613 40.8589 11.6487C41.4064 12.0362 41.6802 12.5668 41.6802 13.2407ZM37.2833 15.338H38.4078C38.8037 15.338 39.1406 15.2622 39.4186 15.1106C39.705 14.959 39.9113 14.7653 40.0377 14.5294C40.2651 14.1083 40.3788 13.6997 40.3788 13.3039C40.3788 13.1101 40.3283 12.8785 40.2272 12.6089C40.025 12.053 39.6081 11.6908 38.9764 11.5224C38.3699 11.5224 37.8056 11.594 37.2833 11.7372V15.338ZM43.5636 10.8022V19.4316H42.5022V10.8022H43.5636ZM47.8535 18.0924V16.791C47.2471 16.8331 46.7501 16.9679 46.3626 17.1953C45.9752 17.4227 45.7815 17.667 45.7815 17.9281C45.7815 18.1892 45.8488 18.4167 45.9836 18.6104C46.1184 18.7957 46.2911 18.9263 46.5016 19.0021C46.7796 18.9515 47.0744 18.8125 47.3861 18.5851C47.6977 18.3577 47.8535 18.1934 47.8535 18.0924ZM48.8896 17.7512C48.8896 18.3493 49.1086 18.8041 49.5466 19.1158L48.8896 19.5959L47.8662 18.6736C47.2007 19.28 46.5859 19.5833 46.0215 19.5833C45.6509 19.5833 45.3308 19.4653 45.0613 19.2295C44.8002 18.9936 44.6696 18.6988 44.6696 18.3451C44.6696 17.9829 44.7749 17.6839 44.9855 17.448C45.2045 17.2122 45.4909 17.0311 45.8446 16.9047C46.4511 16.6773 47.1207 16.5341 47.8535 16.4751V15.2875C47.8535 14.5884 47.4492 14.2388 46.6406 14.2388C46.1773 14.2388 45.6298 14.3399 44.9981 14.542L44.8844 14.2262C45.0529 14.0914 45.3435 13.9482 45.7562 13.7966C46.1773 13.645 46.5774 13.5692 46.9565 13.5692C47.3355 13.5692 47.6514 13.6197 47.9041 13.7208C48.1652 13.8219 48.3547 13.9356 48.4726 14.0619C48.599 14.1883 48.6958 14.3609 48.7632 14.5799C48.8306 14.7989 48.8685 14.9716 48.8769 15.098C48.8854 15.2243 48.8896 15.3928 48.8896 15.6034V17.7512ZM51.6503 14.5294C52.004 14.1925 52.3115 13.9482 52.5726 13.7966C52.8421 13.645 53.158 13.5692 53.5202 13.5692C53.8824 13.5692 54.2151 13.7124 54.5183 13.9988C54.83 14.2851 54.9858 14.7779 54.9858 15.477V19.4316H53.9119V15.6034C53.9119 15.1906 53.8361 14.8832 53.6844 14.681C53.5412 14.4704 53.2886 14.3652 52.9264 14.3652C52.5726 14.3652 52.1599 14.601 51.6882 15.0727V19.4316H50.6142V15.4644C50.6142 14.8916 50.3994 14.4325 49.9699 14.0872L50.6142 13.6071L51.6503 14.5294ZM57.8686 18.3198C57.8686 18.5725 57.9191 18.762 58.0202 18.8884C58.1213 19.0147 58.2898 19.0779 58.5256 19.0779C58.7614 19.0779 59.0436 19.0147 59.3721 18.8884V19.2421C58.8836 19.4695 58.4456 19.5833 58.0581 19.5833C57.6707 19.5833 57.3632 19.478 57.1358 19.2674C56.9168 19.0484 56.8073 18.7115 56.8073 18.2566V14.1756L55.7839 13.9735V13.7208H56.8073V13.2659L57.8686 12.4952V13.7208H59.3721V14.1756H57.8686V18.3198ZM64.3788 13.7208H64.8589L62.6984 19.6212C62.4205 20.3961 62.0035 21.0194 61.4476 21.4911C60.8917 21.9628 60.281 22.2028 59.6156 22.2113L59.7419 21.5795C60.879 21.5374 61.7635 20.8004 62.3952 19.3685L59.8304 13.7208H60.9548L62.8879 18.0039L64.3788 13.7208ZM65.4979 10.878H66.5213V11.7624L66.1549 13.9861H65.8517L65.4979 11.7624V10.878ZM70.2337 16.2856L72.4953 19.4316H71.2445L69.6146 17.0437L67.8711 19.4316H67.2646L69.362 16.7657L67.3025 13.7208H68.5533L69.9937 16.0203L71.6867 13.7208H72.3058L70.2337 16.2856Z" fill="black"/>
</svg>
