<svg width="16" height="16" viewBox="0 0 16 16" fill="none" xmlns="http://www.w3.org/2000/svg">
<path fill-rule="evenodd" clip-rule="evenodd" d="M4.55338 12.0177C7.12025 11.6427 8.88763 11.675 11.4579 12.0309C11.644 12.0579 11.8141 12.1513 11.9367 12.2939C12.0593 12.4365 12.1262 12.6187 12.125 12.8067C12.125 12.9867 12.0631 13.1615 11.9514 13.298C11.7566 13.536 11.5571 13.77 11.3529 14H12.3433C12.4055 13.9257 12.4681 13.85 12.5315 13.7731C12.7539 13.5003 12.8753 13.1591 12.875 12.8071C12.875 12.0477 12.3208 11.3934 11.5606 11.2884C8.92963 10.9242 7.09063 10.8894 4.445 11.276C3.677 11.3881 3.125 12.0526 3.125 12.8172C3.125 13.1566 3.23563 13.4922 3.44525 13.7641C3.50713 13.8444 3.56825 13.9231 3.629 14.0004H4.59538C4.40541 13.7729 4.22012 13.5416 4.03963 13.3066C3.93236 13.1659 3.8745 12.9938 3.875 12.8169C3.875 12.413 4.16525 12.0744 4.55338 12.0177ZM8 8.375C8.29548 8.375 8.58806 8.3168 8.86104 8.20373C9.13402 8.09066 9.38206 7.92492 9.59099 7.71599C9.79992 7.50706 9.96566 7.25902 10.0787 6.98604C10.1918 6.71305 10.25 6.42047 10.25 6.125C10.25 5.82953 10.1918 5.53694 10.0787 5.26396C9.96566 4.99098 9.79992 4.74294 9.59099 4.53401C9.38206 4.32508 9.13402 4.15934 8.86104 4.04627C8.58806 3.9332 8.29548 3.875 8 3.875C7.40326 3.875 6.83097 4.11205 6.40901 4.53401C5.98705 4.95597 5.75 5.52826 5.75 6.125C5.75 6.72174 5.98705 7.29403 6.40901 7.71599C6.83097 8.13795 7.40326 8.375 8 8.375V8.375ZM8 9.125C8.79565 9.125 9.55871 8.80893 10.1213 8.24632C10.6839 7.68371 11 6.92065 11 6.125C11 5.32935 10.6839 4.56629 10.1213 4.00368C9.55871 3.44107 8.79565 3.125 8 3.125C7.20435 3.125 6.44129 3.44107 5.87868 4.00368C5.31607 4.56629 5 5.32935 5 6.125C5 6.92065 5.31607 7.68371 5.87868 8.24632C6.44129 8.80893 7.20435 9.125 8 9.125V9.125Z" fill="black"/>
<path fill-rule="evenodd" clip-rule="evenodd" d="M8 14.75C11.7279 14.75 14.75 11.7279 14.75 8C14.75 4.27213 11.7279 1.25 8 1.25C4.27213 1.25 1.25 4.27213 1.25 8C1.25 11.7279 4.27213 14.75 8 14.75ZM8 15.5C12.1423 15.5 15.5 12.1423 15.5 8C15.5 3.85775 12.1423 0.5 8 0.5C3.85775 0.5 0.5 3.85775 0.5 8C0.5 12.1423 3.85775 15.5 8 15.5Z" fill="black"/>
</svg>
