<svg width="18" height="18" viewBox="0 0 18 18" fill="none" xmlns="http://www.w3.org/2000/svg">
<path d="M6.28365 17.5683C6.93057 17.5683 7.455 17.0438 7.455 16.3969C7.455 15.75 6.93057 15.2256 6.28365 15.2256C5.63673 15.2256 5.1123 15.75 5.1123 16.3969C5.1123 17.0438 5.63673 17.5683 6.28365 17.5683Z" fill="black"/>
<path d="M13.4002 17.5683C14.0471 17.5683 14.5716 17.0438 14.5716 16.3969C14.5716 15.75 14.0471 15.2256 13.4002 15.2256C12.7533 15.2256 12.2289 15.75 12.2289 16.3969C12.2289 17.0438 12.7533 17.5683 13.4002 17.5683Z" fill="black"/>
<path d="M16.5654 3.70471C16.517 3.64499 16.4559 3.59674 16.3866 3.56344C16.3173 3.53013 16.2414 3.5126 16.1645 3.51209H5.32569L5.66408 4.55328H15.4826L14.0926 10.8005H6.28359L3.90446 3.26741C3.87873 3.18747 3.83404 3.11495 3.77421 3.05603C3.71438 2.9971 3.64118 2.95353 3.56087 2.92902L1.42642 2.27306C1.36078 2.2529 1.29182 2.24585 1.22347 2.25234C1.15512 2.25882 1.08871 2.2787 1.02804 2.31085C0.905513 2.37577 0.813796 2.48671 0.773065 2.61926C0.732334 2.75181 0.745926 2.89511 0.81085 3.01764C0.875775 3.14016 0.986714 3.23188 1.11926 3.27261L2.98821 3.84527L5.37775 11.3939L4.52397 12.0915L4.45629 12.1592C4.24511 12.4026 4.1254 12.712 4.1178 13.0341C4.1102 13.3563 4.21517 13.671 4.41465 13.924C4.55654 14.0966 4.73685 14.2336 4.94115 14.324C5.14545 14.4144 5.36807 14.4557 5.5912 14.4446H14.28C14.418 14.4446 14.5505 14.3898 14.6481 14.2922C14.7457 14.1945 14.8006 14.0621 14.8006 13.924C14.8006 13.786 14.7457 13.6536 14.6481 13.5559C14.5505 13.4583 14.418 13.4034 14.28 13.4034H5.5079C5.44795 13.4014 5.38955 13.3839 5.33832 13.3527C5.2871 13.3215 5.24479 13.2776 5.21548 13.2253C5.18617 13.1729 5.17086 13.1139 5.17101 13.0539C5.17117 12.994 5.18679 12.935 5.21637 12.8828L6.47101 11.8417H14.509C14.6294 11.8446 14.747 11.8057 14.8419 11.7317C14.9369 11.6577 15.0032 11.553 15.0296 11.4356L16.6799 4.14722C16.6958 4.0696 16.6937 3.9894 16.6738 3.91272C16.654 3.83604 16.6169 3.76489 16.5654 3.70471Z" fill="black"/>
</svg>
